# xmcd
#
# Track frame offsets: 
#        150
#        450
#        15949
#        34137
#        48669
#        64112
#        75969
#        89092
#        106814
#        125012
#
# Disc length: 2013 seconds
#
# Revision: 0
# Processed by: cddbd v1.5.2PL0 Copyright (c) Steve Scherf et al.
# Submitted via: ExactAudioCopy v1.3
#
DISCID=7107db0a
DTITLE=The Nighthawks - Open All Nite
DYEAR=1976
DGENRE=Blues Rock
TTITLE0=Nine Below Zero
TTITLE1=Help Me
TTITLE2=Shake Your Moneymaker
TTITLE3=Big Boss Man
TTITLE4=Little By Little
TTITLE5=Madison Blues
TTITLE6=Next Time You See Me
TTITLE7=That's Alright
TTITLE8=Long Distance Call
TTITLE9=Red Hot Mama
EXTD=
EXTT0=
EXTT1=
EXTT2=
EXTT3=
EXTT4=
EXTT5=
EXTT6=
EXTT7=
EXTT8=
EXTT9=
PLAYORDER=
